<?xml version="1.0" standalone="no"?>
<!DOCTYPE svg PUBLIC "-//W3C//DTD SVG 20010904//EN"
 "http://www.w3.org/TR/2001/REC-SVG-20010904/DTD/svg10.dtd">
<svg version="1.0" xmlns="http://www.w3.org/2000/svg"
 width="1600.000000pt" height="1600.000000pt" viewBox="0 0 1600.000000 1600.000000"
 preserveAspectRatio="xMidYMid meet">
<metadata>
Created by potrace 1.11, written by Peter Selinger 2001-2013
</metadata>
<g transform="translate(0.000000,1600.000000) scale(0.100000,-0.100000)"
fill="#000000" stroke="none">
<path d="M8046 15986 c-28 -16 -121 -114 -154 -161 -15 -22 -33 -46 -40 -54
-8 -8 -18 -24 -23 -35 -5 -12 -18 -34 -29 -51 -29 -46 -140 -270 -155 -315 -1
-3 -6 -16 -12 -30 -39 -92 -64 -161 -102 -280 -24 -74 -47 -144 -52 -155 -4
-11 -15 -47 -24 -80 -17 -60 -21 -78 -31 -124 -3 -14 -7 -28 -10 -33 -3 -4 -7
-16 -9 -25 -3 -17 -20 -87 -29 -123 -3 -8 -10 -37 -16 -65 -6 -27 -14 -59 -16
-70 -3 -11 -7 -33 -10 -50 -3 -16 -10 -48 -16 -70 -5 -22 -12 -51 -14 -65 -4
-22 -14 -75 -29 -150 -3 -14 -8 -41 -11 -60 -3 -19 -10 -55 -15 -80 -5 -25
-11 -56 -13 -70 -3 -14 -9 -59 -16 -100 -6 -41 -14 -91 -16 -110 -11 -76 -13
-85 -14 -85 -1 0 -3 -16 -5 -35 -1 -19 -5 -48 -8 -65 -3 -16 -9 -55 -12 -85
-4 -30 -9 -63 -11 -73 -2 -10 -4 -38 -5 -63 -2 -24 -5 -44 -8 -44 -3 0 -6 -19
-7 -43 -1 -23 -4 -71 -8 -107 -11 -96 -14 -127 -21 -210 -3 -41 -8 -86 -10
-100 -2 -14 -7 -72 -10 -130 -3 -58 -7 -130 -10 -160 -4 -56 -11 -190 -20
-399 -3 -63 -7 -209 -10 -324 -2 -115 -6 -212 -9 -214 -2 -2 -1 -17 4 -31 4
-15 4 -37 -1 -49 -5 -13 -4 -25 2 -28 6 -4 6 -13 0 -23 -5 -9 -5 -26 0 -39 5
-13 5 -23 1 -23 -9 0 -8 -72 1 -87 4 -7 4 -14 -1 -17 -9 -5 -9 -47 1 -63 4 -5
4 -13 0 -16 -8 -9 -10 -117 -1 -117 4 0 3 -13 -2 -30 -5 -16 -6 -30 -2 -30 4
0 8 -89 8 -198 2 -274 25 -875 39 -1012 9 -89 23 -265 30 -383 3 -43 7 -90 9
-105 3 -15 7 -58 11 -97 3 -38 8 -90 11 -115 3 -25 7 -63 9 -85 3 -22 7 -62
11 -90 3 -27 8 -63 9 -80 11 -108 16 -152 20 -165 2 -8 7 -37 10 -65 3 -27 8
-66 10 -85 3 -19 8 -51 11 -70 4 -32 28 -176 40 -245 3 -16 7 -39 9 -50 1 -11
5 -33 8 -50 4 -16 9 -46 12 -65 3 -19 13 -66 21 -105 8 -38 18 -83 21 -100 28
-160 165 -628 213 -727 11 -23 20 -48 20 -55 0 -7 5 -13 10 -13 6 0 10 -7 10
-14 0 -17 59 -121 108 -189 36 -51 37 -53 27 -192 -9 -135 -15 -215 -20 -270
-8 -109 -17 -229 -20 -295 -2 -36 -4 -65 -5 -65 -1 0 -3 -29 -5 -65 -1 -36 -6
-103 -9 -150 -4 -47 -9 -114 -11 -150 -3 -36 -7 -99 -10 -140 -3 -41 -8 -104
-10 -140 -2 -36 -7 -96 -10 -135 -10 -138 -16 -228 -20 -298 -2 -40 -6 -103
-10 -142 -17 -214 -25 -339 -40 -580 -3 -55 -8 -120 -10 -143 -3 -24 -7 -90
-11 -145 -3 -56 -7 -120 -10 -142 -2 -22 -6 -79 -9 -127 -2 -48 -7 -113 -10
-145 -2 -32 -7 -96 -10 -143 -2 -47 -7 -112 -9 -145 -3 -33 -8 -103 -11 -155
-4 -52 -9 -115 -11 -140 -2 -25 -6 -84 -9 -132 -3 -49 -7 -114 -10 -145 -2
-32 -7 -96 -10 -143 -3 -47 -7 -119 -11 -160 -3 -41 -7 -102 -9 -135 -4 -69
-13 -194 -20 -280 -6 -75 -13 -183 -21 -300 -5 -91 -7 -119 -18 -255 -3 -41
-8 -116 -11 -166 -3 -50 -7 -115 -10 -145 -2 -30 -7 -99 -11 -154 -10 -158
-11 -174 -19 -280 -15 -195 -11 -279 15 -330 47 -91 133 -157 258 -195 64 -20
75 -22 162 -36 105 -16 342 -11 450 9 148 28 282 101 340 184 43 63 48 95 43
292 -3 102 -6 237 -7 298 0 62 -3 113 -6 113 -3 0 -6 24 -6 53 -1 46 -5 137
-19 472 -2 50 -6 149 -10 220 -3 72 -8 180 -10 240 -7 156 -13 289 -20 450 -4
78 -8 188 -10 245 -2 58 -4 105 -5 105 -1 0 -3 41 -5 90 -3 106 -14 364 -21
485 -2 47 -7 146 -9 220 -3 74 -7 173 -9 220 -3 47 -7 146 -11 220 -3 74 -8
182 -11 240 -2 58 -7 159 -9 225 -3 66 -7 170 -10 230 -4 104 -9 224 -21 450
-2 55 -7 156 -10 225 -11 282 -20 493 -39 885 -10 192 -13 326 -13 465 0 250
5 430 11 436 3 3 2 16 -3 28 -4 12 -4 29 1 38 6 10 6 19 0 23 -7 4 -7 15 -1
30 5 14 6 25 2 25 -4 0 -7 11 -7 25 0 14 4 25 8 25 4 0 3 8 -2 18 -6 11 -6 24
0 34 6 11 6 19 -1 23 -6 4 -8 11 -4 16 8 13 9 167 1 175 -3 3 -2 17 3 30 6 14
6 26 0 29 -6 4 -7 13 -1 23 6 11 6 24 0 34 -6 10 -5 26 1 42 5 15 6 26 0 26
-5 0 -5 12 0 30 5 19 5 30 -1 30 -6 0 -7 5 -4 11 7 10 10 120 5 144 -1 6 -1
15 0 20 6 27 4 85 -2 85 -4 0 -3 11 2 25 6 15 6 26 0 30 -7 4 -6 13 0 25 6 12
7 21 0 25 -5 3 -6 15 -1 28 5 12 5 31 1 42 -4 11 -3 28 2 38 5 9 5 17 1 17 -4
0 -8 20 -8 45 0 25 4 45 8 45 4 0 4 8 -2 17 -5 10 -5 26 -1 39 5 12 7 24 4 27
-9 9 -10 77 -2 77 5 0 6 5 3 11 -10 16 -12 79 -2 79 4 0 4 8 0 18 -10 20 -9
64 1 81 4 6 4 11 -1 11 -4 0 -8 29 -8 65 0 36 4 65 8 65 5 0 5 5 1 11 -4 6 -8
579 -10 1273 -4 2027 -16 3847 -27 4503 -1 51 -5 93 -8 93 -4 0 -3 16 1 34 4
19 5 37 2 40 -3 4 -6 39 -8 80 -6 182 -23 444 -39 606 -2 19 -6 61 -9 92 -3
32 -8 68 -10 80 -3 13 -7 41 -10 63 -3 22 -10 55 -15 73 -5 18 -10 35 -10 37
-2 20 -16 65 -29 90 -28 57 -65 75 -106 51z"/>
<path d="M4175 15182 c-5 -4 -11 -34 -12 -67 -2 -63 -10 -240 -17 -360 -11
-188 -19 -325 -21 -372 -1 -29 -4 -56 -8 -59 -3 -4 -2 -14 3 -24 5 -10 6 -20
3 -24 -3 -3 -7 -32 -9 -64 -2 -67 -14 -255 -19 -327 -6 -80 -15 -214 -20 -295
-3 -41 -7 -102 -10 -135 -4 -58 -11 -158 -20 -298 -2 -37 -7 -72 -10 -77 -3
-6 -1 -10 5 -10 6 0 8 -5 5 -10 -7 -12 -10 -38 -20 -205 -4 -60 -8 -128 -11
-150 -4 -45 -13 -210 -19 -360 -2 -55 -6 -143 -9 -195 -7 -105 -14 -262 -22
-445 -8 -187 -8 -464 -1 -530 18 -164 77 -346 153 -475 88 -148 271 -323 377
-361 20 -7 37 -16 37 -19 0 -4 6 -7 13 -8 34 -4 203 -68 213 -81 7 -9 10 -25
8 -36 -2 -11 -6 -74 -9 -140 -8 -185 -14 -330 -20 -450 -3 -60 -7 -164 -10
-230 -3 -66 -7 -156 -10 -200 -2 -44 -6 -136 -9 -205 -3 -69 -8 -177 -12 -240
-3 -63 -7 -158 -9 -210 -3 -52 -7 -147 -9 -210 -3 -63 -8 -167 -11 -230 -7
-147 -15 -328 -18 -405 -1 -33 -6 -65 -10 -72 -4 -6 -3 -14 3 -18 6 -4 8 -10
6 -14 -4 -6 -8 -64 -21 -361 -2 -47 -7 -141 -10 -210 -3 -69 -7 -168 -10 -220
-2 -52 -7 -144 -10 -205 -3 -60 -8 -166 -10 -235 -3 -69 -8 -179 -11 -245 -3
-66 -7 -146 -8 -177 -1 -32 -5 -60 -8 -63 -3 -4 -2 -19 2 -35 4 -16 6 -31 4
-33 -3 -2 -7 -49 -9 -103 -3 -55 -7 -146 -10 -204 -2 -58 -7 -161 -10 -230 -3
-69 -8 -172 -11 -230 -10 -214 -14 -288 -19 -410 -7 -149 -14 -314 -20 -430
-9 -183 -16 -349 -20 -445 -2 -55 -4 -100 -5 -100 0 0 -3 -52 -5 -115 -2 -63
-7 -160 -10 -215 -3 -55 -8 -158 -11 -230 -3 -71 -7 -168 -9 -215 -3 -47 -7
-141 -10 -210 -2 -69 -7 -170 -10 -225 -3 -55 -8 -145 -10 -200 -2 -55 -6
-156 -10 -225 -3 -69 -7 -172 -10 -230 -3 -58 -7 -152 -10 -210 -3 -58 -8
-150 -10 -205 -6 -145 -15 -328 -20 -420 -19 -340 -20 -369 -11 -445 8 -70 45
-181 77 -228 16 -24 29 -45 29 -48 0 -11 79 -80 125 -109 50 -32 140 -70 192
-80 76 -16 107 -18 213 -19 134 0 186 7 300 40 73 21 240 142 240 174 0 5 4
10 8 10 8 0 58 93 62 115 1 6 6 17 10 25 5 9 12 36 16 60 10 62 12 431 2 453
-6 11 -5 17 2 17 6 0 8 5 4 11 -3 6 -8 88 -9 182 -3 159 -9 373 -20 722 -3 77
-7 230 -10 340 -3 110 -7 263 -10 340 -2 77 -6 228 -10 335 -3 107 -8 272 -11
365 -2 94 -6 245 -8 337 -2 91 -7 171 -10 177 -4 5 -2 12 4 16 6 4 7 11 3 18
-3 6 -7 69 -9 141 -1 72 -5 214 -8 316 -11 327 -18 602 -20 727 0 68 -3 123
-6 123 -3 0 -5 66 -6 148 -1 141 -8 435 -20 777 -3 88 -6 232 -8 321 -2 89 -6
166 -10 172 -3 6 -2 13 4 17 6 4 8 11 4 16 -3 6 -8 77 -10 157 -1 81 -6 235
-9 342 -8 245 -14 465 -20 690 -2 96 -7 243 -9 325 -3 83 -8 240 -11 350 -3
110 -5 200 -6 200 0 0 -6 195 -14 505 -3 107 -7 272 -10 365 -2 94 -7 257 -9
363 -3 106 -8 197 -11 202 -3 5 -1 11 5 15 6 4 8 11 4 16 -3 6 -7 57 -8 115
-2 88 0 104 13 106 23 2 34 4 51 11 22 8 89 29 103 31 27 5 145 70 197 108 60
45 191 175 228 226 44 63 137 257 133 280 -1 6 2 12 7 12 5 0 9 6 9 13 0 6 6
32 13 57 19 70 24 94 36 190 7 60 3 535 -5 535 -1 0 -3 61 -6 135 -3 74 -7
173 -10 220 -2 47 -7 144 -11 215 -12 253 -13 281 -18 370 -8 151 -16 276 -22
350 -3 39 -7 95 -9 125 -8 125 -16 228 -20 270 -3 25 -8 81 -10 125 -6 95 -12
183 -19 285 -6 74 -12 172 -21 345 -6 110 -14 253 -21 360 -11 180 -25 459
-29 563 -1 46 -8 89 -13 94 -12 12 -131 20 -133 10 -1 -4 -2 -554 -4 -1222 -2
-1064 -5 -1293 -18 -1360 -13 -63 -44 -89 -115 -94 -93 -7 -162 47 -168 133
-7 110 -21 573 -28 939 -2 89 -5 165 -9 168 -3 3 -1 18 3 34 4 16 6 31 3 33
-2 3 -6 74 -8 158 -21 845 -29 1151 -34 1199 -1 12 -17 16 -81 18 -54 1 -82
-2 -87 -11 -9 -13 -9 -22 -17 -342 -4 -126 -9 -309 -12 -405 -8 -264 -22 -841
-29 -1190 -6 -316 -18 -564 -29 -634 -14 -86 -25 -94 -127 -98 -90 -3 -136 26
-146 92 -2 14 -5 597 -8 1295 -2 699 -4 1275 -5 1282 0 8 -29 11 -97 10 l-97
-2 -2 -45 c-5 -80 -15 -608 -18 -886 -2 -149 -6 -276 -10 -282 -3 -6 -2 -13 3
-16 6 -4 6 -18 1 -35 -4 -15 -4 -34 0 -42 5 -7 6 -17 4 -21 -3 -4 -7 -135 -9
-291 -4 -291 -15 -799 -19 -898 -2 -32 -8 -70 -15 -85 -31 -77 -162 -106 -233
-52 -19 15 -35 32 -36 40 0 7 -4 49 -7 93 -3 43 -8 81 -10 84 -3 2 0 10 6 18
6 7 7 13 2 13 -5 0 -9 480 -10 1202 l0 1202 -64 3 c-35 1 -68 -1 -74 -5z"/>
<path d="M10429 14615 c-2 -2 -17 -5 -34 -8 -74 -11 -315 -118 -315 -139 0 -5
-4 -7 -9 -3 -5 3 -15 -1 -23 -8 -7 -7 -35 -28 -63 -47 -55 -37 -110 -79 -165
-125 -53 -45 -270 -266 -270 -275 0 -5 -3 -10 -7 -12 -22 -9 -243 -314 -243
-334 0 -3 -9 -18 -19 -33 -63 -88 -230 -473 -247 -571 -3 -14 -8 -34 -11 -45
-9 -28 -13 -45 -18 -78 -3 -16 -7 -33 -10 -38 -9 -13 -14 -44 -31 -174 -11
-90 -15 -177 -14 -330 1 -166 3 -219 13 -300 3 -22 8 -67 12 -100 4 -32 8 -67
10 -76 2 -9 6 -34 10 -55 11 -75 16 -99 25 -134 5 -19 12 -50 15 -67 17 -101
146 -470 169 -485 6 -4 8 -8 4 -8 -15 0 136 -278 188 -347 13 -17 24 -36 24
-41 0 -6 3 -12 8 -14 4 -1 27 -30 52 -63 66 -88 254 -272 345 -337 111 -79
279 -163 368 -184 l28 -7 -6 -146 c-4 -80 -8 -173 -10 -206 -1 -33 -6 -123
-10 -200 -4 -77 -8 -178 -10 -225 -2 -47 -7 -141 -10 -210 -3 -69 -8 -170 -10
-225 -2 -55 -7 -154 -10 -220 -10 -205 -15 -316 -20 -435 -4 -105 -7 -180 -20
-430 -3 -47 -7 -143 -10 -215 -3 -71 -8 -184 -11 -250 -3 -66 -7 -154 -9 -195
-2 -41 -6 -140 -10 -220 -4 -80 -8 -181 -10 -225 -2 -44 -4 -80 -5 -80 0 0 -3
-61 -6 -135 -2 -74 -6 -171 -9 -215 -10 -193 -18 -386 -19 -462 -1 -46 -3 -83
-6 -83 -3 0 -6 -44 -7 -98 -1 -53 -4 -153 -8 -222 -7 -139 -11 -234 -19 -420
-8 -164 -15 -321 -21 -445 -3 -55 -7 -152 -10 -215 -6 -136 -11 -254 -31 -660
-3 -63 -7 -151 -9 -195 -7 -190 -16 -376 -20 -450 -6 -106 -20 -428 -30 -655
-3 -63 -7 -160 -10 -215 -9 -162 -15 -302 -20 -425 -4 -114 -10 -238 -20 -440
-24 -448 -34 -877 -23 -930 52 -230 198 -360 463 -416 49 -10 272 -13 312 -4
21 5 53 12 72 15 19 3 43 11 54 17 12 6 28 11 37 12 31 2 145 72 191 118 78
77 124 171 136 278 9 70 8 295 -2 630 -4 146 -8 315 -9 375 -1 61 -5 116 -9
122 -4 6 -3 14 3 18 6 4 8 11 4 16 -3 5 -7 78 -9 162 -2 84 -7 242 -10 352 -9
309 -16 558 -19 690 -1 67 -5 126 -9 132 -4 7 -3 14 3 18 6 4 8 10 5 15 -3 4
-7 93 -10 196 -3 104 -8 261 -10 349 -5 163 -13 440 -20 690 -2 77 -6 221 -9
320 -9 291 -15 500 -31 1060 -2 88 -7 243 -10 345 -6 204 -12 424 -20 720 -3
107 -8 260 -10 340 -3 80 -7 217 -9 305 -7 207 -16 519 -21 715 -12 444 -15
547 -20 685 -3 83 -7 236 -10 340 -3 105 -7 273 -10 375 -3 102 -8 271 -11
375 -3 105 -6 228 -8 275 -1 47 1 92 5 101 8 15 53 35 72 31 4 -1 7 3 7 8 0 6
7 10 16 10 30 0 211 101 299 168 172 128 335 313 457 517 83 139 192 368 180
379 -3 3 -1 6 5 6 5 0 10 6 11 13 1 6 17 57 37 113 33 96 98 340 109 414 7 40
14 83 21 120 8 37 17 138 19 195 1 28 4 55 7 60 7 13 3 429 -5 475 -3 19 -8
53 -11 75 -6 36 -9 55 -20 120 -5 31 -15 78 -20 95 -2 8 -7 31 -10 50 -3 19
-10 39 -15 45 -4 5 -9 15 -9 20 -1 6 -6 28 -12 50 -6 22 -12 45 -14 50 -1 6
-5 17 -8 25 -4 8 -16 42 -28 75 -12 33 -41 102 -65 154 -24 51 -44 95 -44 96
0 17 -197 336 -219 355 -3 3 -26 32 -51 65 -97 128 -327 359 -398 399 -9 6
-28 20 -42 33 -14 13 -30 23 -37 23 -6 0 -13 3 -15 8 -4 10 -65 52 -76 52 -5
0 -15 7 -22 15 -6 8 -15 14 -18 13 -4 -1 -41 15 -82 34 -73 36 -145 61 -205
74 -35 7 -181 15 -186 9z"/>
</g>
</svg>
